<?xml version="1.0"?>
<svg xmlns="http://www.w3.org/2000/svg" id="Capa_1" enable-background="new 0 0 511.692 511.692" height="512px" viewBox="0 0 511.692 511.692" width="512px" class=""><g><g><path d="m261.155 140.108h107.474c4.143 0 7.5-3.358 7.5-7.5s-3.357-7.5-7.5-7.5h-107.474c-4.143 0-7.5 3.358-7.5 7.5s3.357 7.5 7.5 7.5z" data-original="#000000" class="active-path" data-old_color="#000000" fill="#FFFFFF"/><path d="m504.192 288.865c4.143 0 7.5-3.358 7.5-7.5v-47.41c0-23.626-19.222-42.847-42.848-42.847h-8.321v-23.153c0-23.626-19.222-42.847-42.848-42.847h-17.085c-4.143 0-7.5 3.358-7.5 7.5s3.357 7.5 7.5 7.5h17.085c15.355 0 27.848 12.492 27.848 27.847v8.18h-190.546c-4.142 0-7.5 3.358-7.5 7.5s3.358 7.5 7.5 7.5h190.546v211.662c0 15.355-12.492 27.847-27.848 27.847h-374.662c-15.355 0-27.847-12.492-27.847-27.847v-167.19c0-4.142-3.358-7.5-7.5-7.5s-7.5 3.358-7.5 7.5v167.189c0 23.626 19.221 42.847 42.847 42.847h8.322v23.152c0 23.626 19.221 42.848 42.847 42.848h374.663c23.626 0 42.848-19.221 42.848-42.848v-155.467c0-4.142-3.357-7.5-7.5-7.5s-7.5 3.358-7.5 7.5v155.468c0 15.355-12.492 27.848-27.848 27.848h-374.663c-15.355 0-27.847-12.492-27.847-27.848v-23.152h351.341c23.626 0 42.848-19.221 42.848-42.847v-145.662h36.169v24.23c-.001 4.142 3.356 7.5 7.499 7.5zm-43.669-46.73v-36.027h8.321c15.355 0 27.848 12.492 27.848 27.847v8.18z" data-original="#000000" class="active-path" data-old_color="#000000" fill="#FFFFFF"/><path d="m117.681 285.041c.542.122 1.094.183 1.646.183s1.104-.061 1.646-.183c18.643-4.194 36.078-11.765 51.822-22.502 3.422-2.334 4.304-7 1.971-10.422-2.335-3.422-7-4.306-10.422-1.971-13.71 9.35-28.847 16.034-45.017 19.88-29.31-6.983-55.739-23.721-74.574-47.266-19.187-23.983-29.753-54.106-29.753-84.82v-68.57c0-.16.088-.305.229-.378l103.901-53.899c.123-.063.27-.064.393 0l103.901 53.898c.142.074.23.219.23.379v68.57c0 34.384-12.899 67.208-36.32 92.424-2.819 3.035-2.644 7.78.391 10.599s7.781 2.644 10.599-.391c26.007-28 40.33-64.449 40.33-102.632v-68.57c0-5.782-3.188-11.029-8.322-13.693l-103.901-53.899c-4.447-2.307-9.757-2.307-14.207 0l-103.903 53.9c-5.133 2.663-8.321 7.91-8.321 13.692v68.57c0 34.107 11.734 67.558 33.041 94.191 21.306 26.633 51.365 45.423 84.64 52.91z" data-original="#000000" class="active-path" data-old_color="#000000" fill="#FFFFFF"/><path d="m119.328 52.734c-45.264 0-82.089 36.825-82.089 82.089s36.825 82.089 82.089 82.089 82.089-36.825 82.089-82.089-36.825-82.089-82.089-82.089zm0 149.178c-36.993 0-67.089-30.096-67.089-67.089s30.096-67.089 67.089-67.089 67.089 30.096 67.089 67.089-30.096 67.089-67.089 67.089z" data-original="#000000" class="active-path" data-old_color="#000000" fill="#FFFFFF"/><path d="m165.807 110.505c-3.115-2.729-7.854-2.415-10.583.701l-37.329 42.62-24.425-15.293c-3.511-2.198-8.139-1.134-10.337 2.377s-1.134 8.139 2.377 10.337l29.839 18.682c1.23.77 2.608 1.144 3.977 1.144 2.101 0 4.176-.882 5.646-2.559l41.538-47.424c2.726-3.117 2.413-7.855-.703-10.585z" data-original="#000000" class="active-path" data-old_color="#000000" fill="#FFFFFF"/><path d="m265.865 249.685h-12.352c-4.142 0-7.5 3.358-7.5 7.5s3.358 7.5 7.5 7.5h12.352c4.143 0 7.5-3.358 7.5-7.5s-3.358-7.5-7.5-7.5z" data-original="#000000" class="active-path" data-old_color="#000000" fill="#FFFFFF"/><path d="m405.178 264.685c4.143 0 7.5-3.358 7.5-7.5s-3.357-7.5-7.5-7.5h-103.895c-4.143 0-7.5 3.358-7.5 7.5s3.357 7.5 7.5 7.5z" data-original="#000000" class="active-path" data-old_color="#000000" fill="#FFFFFF"/><path d="m169.821 310.548c0 4.142 3.358 7.5 7.5 7.5h227.857c4.143 0 7.5-3.358 7.5-7.5s-3.357-7.5-7.5-7.5h-227.857c-4.142 0-7.5 3.358-7.5 7.5z" data-original="#000000" class="active-path" data-old_color="#000000" fill="#FFFFFF"/><path d="m405.178 356.412h-340.896c-4.142 0-7.5 3.358-7.5 7.5s3.358 7.5 7.5 7.5h340.896c4.143 0 7.5-3.358 7.5-7.5s-3.357-7.5-7.5-7.5z" data-original="#000000" class="active-path" data-old_color="#000000" fill="#FFFFFF"/></g></g> </svg>
