<?xml version="1.0"?>
<svg xmlns="http://www.w3.org/2000/svg" xmlns:xlink="http://www.w3.org/1999/xlink" version="1.1" id="Capa_1" x="0px" y="0px" viewBox="0 0 373.674 373.674" style="enable-background:new 0 0 373.674 373.674;" xml:space="preserve" width="512px" height="512px" class=""><g><path d="M34.478,96.522c11.519,5.077,26.635,7.873,42.565,7.873c15.931,0,31.049-2.796,42.567-7.873  c18.706-8.244,21.499-19.451,21.499-25.397s-2.793-17.152-21.499-25.396c-11.519-5.077-26.637-7.873-42.567-7.873  c-15.93,0-31.046,2.796-42.565,7.873c-18.706,8.244-21.499,19.45-21.499,25.396S15.771,88.278,34.478,96.522z M77.043,55.855  c28.126,0,46.066,10.026,46.066,15.27s-17.94,15.271-46.066,15.271c-28.125,0-46.064-10.027-46.064-15.271  S48.917,55.855,77.043,55.855z M133.966,115.234c3.569,3.46,3.657,9.158,0.197,12.727c-10.452,10.781-32.339,17.479-57.121,17.479  c-24.782,0-46.669-6.697-57.119-17.479c-3.459-3.569-3.371-9.267,0.199-12.727c3.57-3.459,9.267-3.369,12.726,0.199  c5.605,5.783,21.826,12.007,44.194,12.007s38.59-6.225,44.197-12.008C124.7,111.863,130.397,111.776,133.966,115.234z   M142.195,210.039h10.123c4.971,0,9,4.029,9,9s-4.029,9-9,9h-10.123c-4.971,0-9-4.029-9-9S137.225,210.039,142.195,210.039z   M162.588,74.757c-0.468-1.167-0.679-2.404-0.64-3.63c-0.065-2.065,0.576-4.162,1.967-5.902c2.251-2.814,4.802-6.006,7.261-8.986  c2.196-2.664,4.198-5.063,6.021-7.248c1.49-1.785,2.859-3.426,4.118-4.952c3.162-3.836,8.834-4.382,12.669-1.22  c3.835,3.162,4.381,8.834,1.219,12.669c-1.28,1.553-2.672,3.221-4.187,5.036c-0.51,0.61-1.034,1.238-1.572,1.884h40.02  c4.971,0,9,4.029,9,9s-4.029,9-9,9h-39.551c0.385,0.462,0.763,0.914,1.133,1.358c1.503,1.801,2.885,3.457,4.157,4.999  c3.162,3.835,2.617,9.507-1.218,12.669c-1.677,1.383-3.705,2.057-5.721,2.057c-2.595,0-5.169-1.116-6.949-3.274  c-1.25-1.517-2.61-3.146-4.089-4.918c-1.831-2.194-3.843-4.604-6.053-7.286c-2.283-2.77-4.619-5.683-7.213-8.926  c-0.538-0.661-0.983-1.398-1.318-2.195h0c-0.003-0.008-0.006-0.015-0.009-0.022c0-0.001-0.001-0.003-0.001-0.004  c-0.002-0.006-0.005-0.013-0.008-0.019c-0.001-0.003-0.002-0.005-0.003-0.008c-0.002-0.005-0.004-0.01-0.006-0.015  c-0.001-0.004-0.003-0.008-0.005-0.012s-0.003-0.007-0.004-0.011c-0.002-0.005-0.005-0.011-0.007-0.016  c0-0.002-0.001-0.004-0.002-0.006c-0.003-0.007-0.006-0.014-0.009-0.021C162.589,74.758,162.589,74.758,162.588,74.757z   M63.827,272.53c0,4.971-4.029,9-9,9H34.334c-4.971,0-9-4.029-9-9s4.029-9,9-9h20.493C59.798,263.53,63.827,267.559,63.827,272.53z   M322.132,293.364c0,4.971-4.029,9-9,9s-9.011-4.029-9.011-9s4.018-9,8.988-9h0.023  C318.103,284.364,322.132,288.393,322.132,293.364z M63.827,240.206c0,4.971-4.029,9-9,9H9c-4.971,0-9-4.029-9-9s4.029-9,9-9h45.827  C59.798,231.206,63.827,235.235,63.827,240.206z M241.938,284.362h-51.964c-4.14-19.102-21.173-33.454-41.496-33.454  c-19.176,0-35.423,12.778-40.673,30.269c-0.597-0.593-1.055-1.221-1.363-1.84c-0.343-0.687-0.518-1.401-0.518-2.123v-60.013  c0-4.971-4.029-9-9-9s-9,4.029-9,9v60.013c0,3.54,0.813,6.962,2.409,10.156c3.196,6.421,9.144,11.234,16.357,13.52  c3.562,19.833,20.945,34.93,41.787,34.93c20.324,0,37.359-14.354,41.497-33.457h51.963c4.971,0,9-4.029,9-9  S246.909,284.362,241.938,284.362z M148.478,317.819c-13.439,0-24.381-10.897-24.455-24.32c0.002-0.112,0.002-0.224,0-0.336  c0.107-13.394,11.036-24.255,24.454-24.255c13.485,0,24.457,10.971,24.457,24.456C172.935,306.848,161.963,317.819,148.478,317.819z   M373.603,235.951c-0.574-25.425-6.373-30.563-27.946-49.676c-2.451-2.172-5.143-4.557-8.099-7.21  c-1.965-1.763-3.937-3.646-6.024-5.641c-3.273-3.127-6.657-6.361-10.408-9.501c-2.894-2.424-5.634-4.731-8.24-6.926  c-33.525-28.23-47.402-39.915-82.138-39.915h-62.132c-4.971,0-9,4.029-9,9c0,4.971,4.029,9,9,9h62.132  c28.167,0,37.144,7.56,70.544,35.684c2.617,2.204,5.368,4.521,8.277,6.958c3.3,2.762,6.467,5.788,9.53,8.715  c2.096,2.002,4.262,4.072,6.438,6.023c2.987,2.681,5.707,5.091,8.184,7.285c4.771,4.227,8.485,7.517,11.379,10.293h-127.84  c-1.934-0.684-9.033-4.986-22.394-18.276c-10.608-10.552-17.927-19.531-19.15-21.724c-1.967-4.453-7.137-6.546-11.663-4.678  c-4.595,1.896-6.783,7.157-4.887,11.752c2.578,6.247,16.598,21.08,23.65,28.05c23.148,22.876,30.713,22.876,33.944,22.876h138.454  c0.23,2.333,0.319,5.03,0.394,8.317c0.107,4.704,0.061,14.784,0.027,22.145l-0.023,5.125c-0.018,3.827-0.039,8.196-0.039,13.586  c0,1.395-0.671,2.743-1.8,3.887c-5.275-17.45-21.503-30.192-40.652-30.192c-23.411,0-42.457,19.046-42.457,42.456  s19.046,42.455,42.457,42.455c20.86,0,38.255-15.123,41.798-34.98c10.912-3.544,18.653-12.863,18.653-23.625  c0-5.355,0.021-9.696,0.039-13.5l0.023-5.129C373.67,250.705,373.715,240.898,373.603,235.951z M337.578,293.384  c-0.011,13.476-10.978,24.436-24.457,24.436c-13.485,0-24.457-10.971-24.457-24.455c0-13.485,10.971-24.456,24.457-24.456  c13.455,0,24.406,10.919,24.457,24.361C337.577,293.307,337.577,293.346,337.578,293.384z M157.49,293.364c0,4.971-4.029,9-9,9  s-9.012-4.029-9.012-9s4.018-9,8.988-9h0.023C153.46,284.364,157.49,288.393,157.49,293.364z M134.164,169.797  c-10.451,10.78-32.338,17.478-57.121,17.478c-24.784,0-46.671-6.697-57.119-17.479c-3.459-3.569-3.37-9.268,0.199-12.727  c3.57-3.46,9.268-3.369,12.727,0.199c5.604,5.782,21.824,12.006,44.193,12.006s38.591-6.224,44.196-12.007  c3.46-3.567,9.158-3.658,12.727-0.197C137.535,160.529,137.624,166.227,134.164,169.797z" data-original="#000000" class="active-path" data-old_color="#000000" fill="#FFFFFF"/></g> </svg>
